:version 1.10
:name ASF
:units
  mass 1
  length 1
  angle deg
:documentation
  ASF file generated by Kaydara
:root
  axis xyz
  order  tx ty tz rx ry rz
  position 0 0 0
  orientation 0 0 0
:bonedata
  begin
    id 1
    name lfemurDummy
    direction 0.61522 -0.761478 0.204097
    length 5.68318
    axis 0 -0 0 xyz
  end
  begin
    id 2
    name lfemur
    direction 0.34202 -0.939693 -5.84747e-008
    length 16.9147
    axis 0 -0 20 xyz
    dof rx ry rz
    limits( -inf , inf )
( -inf , inf )
( -inf , inf )

  end
  begin
    id 3
    name ltibia
    direction 0.34202 -0.939693 1.20839e-009
    length 18.0532
    axis 0 -0 20 xyz
    dof rz ry rx
    limits( -inf , inf )
( -inf , inf )
( -inf , inf )

  end
  begin
    id 4
    name lfoot
    direction 0.0841971 -0.23133 0.969225
    length 5.23822
    axis -90 7.62852e-016 20 xyz
    dof ry rx rz
    limits( -inf , inf )
( -inf , inf )
( -inf , inf )

  end
  begin
    id 5
    name ltoes
    direction 0 0 0
    length 0
    axis 0 0 0 xyz
    dof rz ry rx
    limits( -inf , inf )
( -inf , inf )
( -inf , inf )

  end
  begin
    id 6
    name rfemurDummy
    direction -0.625247 -0.75382 0.202044
    length 5.74091
    axis 0 -0 0 xyz
  end
  begin
    id 7
    name rfemur
    direction -0.34202 -0.939693 -1.47013e-008
    length 16.4922
    axis 0 -0 -20 xyz
    dof rx ry rz
    limits( -inf , inf )
( -inf , inf )
( -inf , inf )

  end
  begin
    id 8
    name rtibia
    direction -0.34202 -0.939693 -7.74345e-010
    length 18.2421
    axis 0 -0 -20 xyz
    dof rz ry rx
    limits( -inf , inf )
( -inf , inf )
( -inf , inf )

  end
  begin
    id 9
    name rfoot
    direction -0.124331 -0.341598 0.931586
    length 5.45787
    axis -90 -7.62852e-016 -20 xyz
    dof ry rx rz
    limits( -inf , inf )
( -inf , inf )
( -inf , inf )

  end
  begin
    id 10
    name rtoes
    direction 0 0 0
    length 0
    axis 0 0 0 xyz
    dof rz ry rx
    limits( -inf , inf )
( -inf , inf )
( -inf , inf )

  end
  begin
    id 11
    name lowerbackDummy
    direction 0 0 0
    length 0
    axis 0 -0 0 xyz
  end
  begin
    id 12
    name lowerback
    direction -0.0218484 0.994884 -0.0986304
    length 4.45607
    axis 0 -0 0 xyz
    dof rx ry rz
    limits( -inf , inf )
( -inf , inf )
( -inf , inf )

  end
  begin
    id 13
    name upperback
    direction -0.00973057 0.999717 -0.0217111
    length 4.47449
    axis 0 -0 0 xyz
    dof rx ry rz
    limits( -inf , inf )
( -inf , inf )
( -inf , inf )

  end
  begin
    id 14
    name thorax
    direction -0.000928171 0.999699 0.0245198
    length 4.50973
    axis 0 -0 0 xyz
    dof rx ry rz
    limits( -inf , inf )
( -inf , inf )
( -inf , inf )

  end
  begin
    id 15
    name rclavicle
    direction -0.9009 0.425937 -0.0834055
    length 7.28587
    axis 0 -0 0 xyz
    dof rx ry rz
    limits( -inf , inf )
( -inf , inf )
( -inf , inf )

  end
  begin
    id 16
    name rhumerus
    direction -1 -2.23604e-007 -1.42637e-007
    length 13.5704
    axis 180 30 90 xyz
    dof rx ry rz
    limits( -inf , inf )
( -inf , inf )
( -inf , inf )

  end
  begin
    id 17
    name rradius
    direction -1 5.68281e-008 -4.4952e-007
    length 8.06782
    axis 180 30 90 xyz
    dof rz ry rx
    limits( -inf , inf )
( -inf , inf )
( -inf , inf )

  end
  begin
    id 18
    name rwrist
    direction -1 1.51393e-007 1.38143e-007
    length 4.03391
    axis -90 -90 0 xyz
    dof rz rx ry
    limits( -inf , inf )
( -inf , inf )
( -inf , inf )

  end
  begin
    id 19
    name rthumb
    direction 0 0 0
    length 0
    axis 0 0 0 xyz
    dof ry rx rz
    limits( -inf , inf )
( -inf , inf )
( -inf , inf )

  end
  begin
    id 20
    name rhand
    direction -1 -3.34077e-007 -5.59631e-007
    length 1.29744
    axis -90 -90 0 xyz
    dof ry rx rz
    limits( -inf , inf )
( -inf , inf )
( -inf , inf )

  end
  begin
    id 21
    name rfingers
    direction 0 0 0
    length 0
    axis 0 0 0 xyz
    dof rz ry rx
    limits( -inf , inf )
( -inf , inf )
( -inf , inf )

  end
  begin
    id 22
    name lclavicle
    direction 0.940017 0.332249 -0.0773232
    length 8.29589
    axis 0 -0 0 xyz
    dof rx ry rz
    limits( -inf , inf )
( -inf , inf )
( -inf , inf )

  end
  begin
    id 23
    name lhumerus
    direction 1 7.41158e-008 -1.44768e-008
    length 12.0042
    axis 180 -30 -90 xyz
    dof rx ry rz
    limits( -inf , inf )
( -inf , inf )
( -inf , inf )

  end
  begin
    id 24
    name lradius
    direction 1 -1.32972e-007 3.10821e-007
    length 8.1902
    axis 180 -30 -90 xyz
    dof rz ry rx
    limits( -inf , inf )
( -inf , inf )
( -inf , inf )

  end
  begin
    id 25
    name lwrist
    direction 1 3.08957e-007 4.01394e-007
    length 4.09509
    axis -90 90 0 xyz
    dof rz rx ry
    limits( -inf , inf )
( -inf , inf )
( -inf , inf )

  end
  begin
    id 26
    name lthumb
    direction 0 0 0
    length 0
    axis 0 0 0 xyz
    dof ry rx rz
    limits( -inf , inf )
( -inf , inf )
( -inf , inf )

  end
  begin
    id 27
    name lhand
    direction 1 -1.64125e-007 -6.99514e-007
    length 1.37229
    axis -90 90 0 xyz
    dof ry rx rz
    limits( -inf , inf )
( -inf , inf )
( -inf , inf )

  end
  begin
    id 28
    name lfingers
    direction 0 0 0
    length 0
    axis 0 0 0 xyz
    dof rz ry rx
    limits( -inf , inf )
( -inf , inf )
( -inf , inf )

  end
  begin
    id 29
    name lowerneck
    direction -0.030798 0.998024 0.0547665
    length 3.93918
    axis 0 -0 0 xyz
    dof rx ry rz
    limits( -inf , inf )
( -inf , inf )
( -inf , inf )

  end
  begin
    id 30
    name upperneck
    direction 0.0531588 0.996611 -0.0627736
    length 3.95491
    axis 0 -0 0 xyz
    dof rx ry rz
    limits( -inf , inf )
( -inf , inf )
( -inf , inf )

  end
  begin
    id 31
    name head
    direction 0 0 0
    length 0
    axis 0 0 0 xyz
    dof rx ry rz
    limits( -inf , inf )
( -inf , inf )
( -inf , inf )

  end
:hierarchy
  begin
    root lfemurDummy rfemurDummy lowerbackDummy
    lfemurDummy lfemur
    lfemur ltibia
    ltibia lfoot
    lfoot ltoes
    rfemurDummy rfemur
    rfemur rtibia
    rtibia rfoot
    rfoot rtoes
    lowerbackDummy lowerback
    lowerback upperback
    upperback thorax
    thorax rclavicle lclavicle lowerneck
    rclavicle rhumerus
    rhumerus rradius
    rradius rwrist
    rwrist rthumb rhand
    rhand rfingers
    lclavicle lhumerus
    lhumerus lradius
    lradius lwrist
    lwrist lthumb lhand
    lhand lfingers
    lowerneck upperneck
    upperneck head
  end

:SAMPLES-PER-SECOND 30
:FULLY-SPECIFIED
:DEGREES
65
root  2.874711179 32.78466773 -1.490197782 2.277999878 -70.93599701 -19.01199341
lowerback  15.59910011 5.719079971 -1.859400034
upperback  5.359789848 6.917019844 -2.111140013
thorax  -2.94791007 3.328010082 -2.39557004
lowerneck  -3.450579882 8.820179939 -2.667409897
upperneck  4.958769798 11.69079971 4.733960152
head  1.690709949 5.895289898 2.196439981
lclavicle  0 -9.442270133e-015 7.951389973e-016
lhumerus  -1.004359961 -22.31299973 85.22029877
lradius  2.649469312e-031 -2.334342821e-031 138.6179962
lwrist  -7.062250077e-031 -0 8.197500229
lhand  -1.496451383e-031 -27.76390076 20.11240005
lfingers  90 7.125020027 -90
lthumb  89.89689403 5.08795885 91.16245106
rclavicle  0 -9.442270133e-015 7.951389973e-016
rhumerus  -2.519710064 27.26070023 -77.78410339
rradius  -2.710892254e-031 2.262721199e-031 140.1490021
rwrist  1.059337512e-030 -7.062250077e-031 1.369680047
rhand  -7.920061211e-032 -33.2840004 9.303460121
rfingers  -90 -7.125020027 -90
rthumb  -92.93752616 -24.25625642 -97.11982154
rfemur  -9.337349892 6.527919769 7.108540058
rtibia  -0 0 80.94400024
rfoot  -7.406263466e-032 -26.62560081 -2.125669956
rtoes  5.373923086 19.29304026 -105.8922705
lfemur  -36.17229843 -1.824990034 7.090400219
ltibia  -0 0 75.74500275
lfoot  4.563554677e-032 -14.71350002 -5.539929867
ltoes  -4.250644065 -19.5611806 -102.515957
66
root  3.116888887 32.95533188 -1.572766642 3.229003906 -70.61799622 -18.80200195
lowerback  16.27280045 5.67110014 -1.779229999
upperback  5.58908987 6.836390018 -1.902879953
thorax  -3.080009937 3.278239965 -2.262500048
lowerneck  -3.477799892 8.742380142 -2.668725967
upperneck  4.309549809 11.62139988 4.330190182
head  1.511739969 5.852039814 2.043930054
lclavicle  0 -9.442270133e-015 7.951389973e-016
lhumerus  -0.7645059824 -22.23670006 85.34320068
lradius  2.648980618e-031 -2.334897368e-031 138.6060028
lwrist  -7.062250077e-031 -0 7.868209839
lhand  -1.496451383e-031 -27.76390076 20.11240005
lfingers  90 7.125020027 -90
lthumb  89.89689403 5.08795885 91.16245106
rclavicle  0 -9.442270133e-015 7.951389973e-016
rhumerus  -2.411439896 27.13559914 -77.69409943
rradius  -2.70923257e-031 2.264708131e-031 140.1069946
rwrist  3.531125038e-031 -3.531125038e-031 0.6419839859
rhand  -7.920061211e-032 -33.2840004 9.303460121
rfingers  -90 -7.125020027 -90
rthumb  -92.93752616 -24.25625642 -97.11982154
rfemur  -10.50489998 6.218379974 7.137040138
rtibia  -0 0 80.28929901
rfoot  -7.415186318e-032 -26.76280022 -2.507460117
rtoes  5.373923086 19.29304026 -105.8922705
lfemur  -37.38750076 -1.780500054 7.044300079
ltibia  -0 0 74.68939972
lfoot  4.543834965e-032 -13.7347002 -5.650549889
ltoes  -4.250644065 -19.5611806 -102.515957
67
root  3.361155668 33.16088999 -1.663766696 3.692001343 -70.15899658 -18.02400208
lowerback  16.8701992 5.563839912 -1.861919999
upperback  5.861969948 6.651090145 -1.754809976
thorax  -3.136339903 3.175230026 -2.070300102
lowerneck  -3.569890022 8.684809685 -2.670929909
upperneck  3.676170111 11.57559967 3.948169947
head  1.348389983 5.822800159 1.903660059
lclavicle  0 -9.442270133e-015 7.951389973e-016
lhumerus  -0.3122160137 -22.11560059 85.31700134
lradius  2.644901172e-031 -2.339517435e-031 138.5059967
lwrist  0 1.765562519e-031 7.604070187
lhand  -1.496451383e-031 -27.76390076 20.11240005
lfingers  90 7.125020027 -90
lthumb  89.89689403 5.08795885 91.16245106
rclavicle  0 -9.442270133e-015 7.951389973e-016
rhumerus  -2.122090101 26.98279953 -77.57230377
rradius  -2.702303271e-031 2.272971858e-031 139.9320068
rwrist  1.059337512e-030 -0 0.1185889989
rhand  -7.920061211e-032 -33.2840004 9.303460121
rfingers  -90 -7.125020027 -90
rthumb  -92.93752616 -24.25625642 -97.11982154
rfemur  -11.62119961 5.816020012 6.947340012
rtibia  -0 0 79.52909851
rfoot  -4.944127907e-032 -26.77820015 -2.689559937
rtoes  5.373923086 19.29304026 -105.8922705
lfemur  -38.62310028 -1.858070016 6.767839909
ltibia  -0 0 73.44589996
lfoot  4.52473451e-032 -12.70740032 -5.633649826
ltoes  -4.250644065 -19.5611806 -102.515957
68
root  3.613022181 33.38822192 -1.769771163 3.990005493 -69.59600067 -16.94700623
lowerback  17.48450089 5.417039871 -2.082799911
upperback  6.075890064 6.388140202 -1.641070008
thorax  -3.272540092 3.032989979 -1.824620008
lowerneck  -3.731100082 8.631150246 -2.668790102
upperneck  2.996390104 11.53339958 3.595119953
head  1.181349993 5.797729969 1.775750041
lclavicle  0 -9.442270133e-015 7.951389973e-016
lhumerus  0.2600499988 -21.99769974 85.09950256
lradius  2.642695019e-031 -2.342009195e-031 138.4519958
lwrist  -7.062250077e-031 -0 7.490859985
lhand  -1.496451383e-031 -27.76390076 20.11240005
lfingers  90 7.125020027 -90
lthumb  89.89689403 5.08795885 91.16245106
rclavicle  0 -9.442270133e-015 7.951389973e-016
rhumerus  -1.823420048 27.03709984 -77.45819855
rradius  -2.689766082e-031 2.287794235e-031 139.6170044
rwrist  7.062250077e-031 -3.531125038e-031 0.49822101
rhand  -7.920061211e-032 -33.2840004 9.303460121
rfingers  -90 -7.125020027 -90
rthumb  -92.93752616 -24.25625642 -97.11982154
rfemur  -12.8508997 5.301970005 6.629519939
rtibia  -0 0 78.7052002
rfoot  -4.938044839e-032 -26.63800049 -2.523580074
rtoes  5.373923086 19.29304026 -105.8922705
lfemur  -39.92770004 -2.014499903 6.421329975
ltibia  -0 0 72.00650024
lfoot  4.505531036e-032 -11.57470036 -5.696320057
ltoes  -4.250644065 -19.5611806 -102.515957
69
root  3.865222105 33.63266592 -1.887222162 4.268997192 -68.90299988 -15.73500061
lowerback  18.11149979 5.272689819 -2.403350115
upperback  6.205500126 6.112370014 -1.504969954
thorax  -3.513089895 2.885220051 -1.499040008
lowerneck  -3.974080086 8.554639816 -2.633140087
upperneck  2.359940052 11.45750046 3.21645999
head  1.047320008 5.756899834 1.641890049
lclavicle  0 -9.442270133e-015 7.951389973e-016
lhumerus  0.714715004 -22.03199959 84.93499756
lradius  2.643471399e-031 -2.341132845e-031 138.470993
lwrist  -7.062250077e-031 1.765562519e-031 7.243319988
lhand  -1.496451383e-031 -27.76390076 20.11240005
lfingers  90 7.125020027 -90
lthumb  89.89689403 5.08795885 91.16245106
rclavicle  0 -9.442270133e-015 7.951389973e-016
rhumerus  -1.61093998 27.11300087 -77.32720184
rradius  -2.673205058e-031 2.307123481e-031 139.2039948
rwrist  3.531125038e-031 -3.531125038e-031 1.138820052
rhand  -7.920061211e-032 -33.2840004 9.303460121
rfingers  -90 -7.125020027 -90
rthumb  -92.93752616 -24.25625642 -97.11982154
rfemur  -14.17300034 4.767549992 6.28621006
rtibia  -0 0 77.86160278
rfoot  -4.924994279e-032 -26.33370018 -2.23883009
rtoes  5.373923086 19.29304026 -105.8922705
lfemur  -41.30170059 -2.291349888 6.137229919
ltibia  -0 0 70.34950256
lfoot  4.484627959e-032 -10.18879986 -6.038189888
ltoes  -4.250644065 -19.5611806 -102.515957
